<svg width="1428" height="1096" viewBox="0 0 1428 1096" fill="none" xmlns="http://www.w3.org/2000/svg">
<mask id="path-1-inside-1_7150_3421" fill="white">
<path d="M4.86473e-06 248C5.64907e-06 313.774 26.1285 376.853 72.6375 423.362C119.147 469.871 182.226 496 248 496C313.774 496 376.853 469.872 423.362 423.363C469.871 376.853 496 313.774 496 248L387.874 248C387.874 285.097 373.138 320.675 346.906 346.906C320.675 373.138 285.097 387.874 248 387.874C210.903 387.874 175.325 373.138 149.094 346.906C122.862 320.675 108.126 285.097 108.126 248L4.86473e-06 248Z"/>
</mask>
<path d="M4.86473e-06 248C5.64907e-06 313.774 26.1285 376.853 72.6375 423.362C119.147 469.871 182.226 496 248 496C313.774 496 376.853 469.872 423.362 423.363C469.871 376.853 496 313.774 496 248L387.874 248C387.874 285.097 373.138 320.675 346.906 346.906C320.675 373.138 285.097 387.874 248 387.874C210.903 387.874 175.325 373.138 149.094 346.906C122.862 320.675 108.126 285.097 108.126 248L4.86473e-06 248Z" stroke="#543ABB" stroke-width="200" mask="url(#path-1-inside-1_7150_3421)"/>
<mask id="path-2-inside-2_7150_3421" fill="white">
<path d="M506 848C506 811.4 491.461 776.299 465.581 750.419C439.701 724.539 404.6 710 368 710C331.4 710 296.299 724.539 270.419 750.419C244.539 776.299 230 811.4 230 848L290.167 848C290.167 827.357 298.367 807.56 312.964 792.964C327.56 778.367 347.357 770.167 368 770.167C388.643 770.167 408.44 778.367 423.036 792.964C437.633 807.56 445.833 827.357 445.833 848L506 848Z"/>
</mask>
<path d="M506 848C506 811.4 491.461 776.299 465.581 750.419C439.701 724.539 404.6 710 368 710C331.4 710 296.299 724.539 270.419 750.419C244.539 776.299 230 811.4 230 848L290.167 848C290.167 827.357 298.367 807.56 312.964 792.964C327.56 778.367 347.357 770.167 368 770.167C388.643 770.167 408.44 778.367 423.036 792.964C437.633 807.56 445.833 827.357 445.833 848L506 848Z" stroke="#543ABB" stroke-width="200" mask="url(#path-2-inside-2_7150_3421)"/>
<mask id="path-3-inside-3_7150_3421" fill="white">
<path d="M778 248C778 282.743 791.802 316.064 816.369 340.631C840.936 365.198 874.257 379 909 379C943.743 379 977.064 365.198 1001.63 340.631C1026.2 316.064 1040 282.743 1040 248L982.885 248C982.885 267.596 975.101 286.389 961.245 300.245C947.389 314.101 928.596 321.885 909 321.885C889.404 321.885 870.611 314.101 856.755 300.245C842.899 286.389 835.115 267.596 835.115 248L778 248Z"/>
</mask>
<path d="M778 248C778 282.743 791.802 316.064 816.369 340.631C840.936 365.198 874.257 379 909 379C943.743 379 977.064 365.198 1001.63 340.631C1026.2 316.064 1040 282.743 1040 248L982.885 248C982.885 267.596 975.101 286.389 961.245 300.245C947.389 314.101 928.596 321.885 909 321.885C889.404 321.885 870.611 314.101 856.755 300.245C842.899 286.389 835.115 267.596 835.115 248L778 248Z" stroke="#543ABB" stroke-width="200" mask="url(#path-3-inside-3_7150_3421)"/>
<mask id="path-4-inside-4_7150_3421" fill="white">
<path d="M932 848C932 782.226 958.128 719.147 1004.64 672.638C1051.15 626.129 1114.23 600 1180 600C1245.77 600 1308.85 626.128 1355.36 672.637C1401.87 719.147 1428 782.226 1428 848L1319.87 848C1319.87 810.903 1305.14 775.325 1278.91 749.094C1252.67 722.862 1217.1 708.126 1180 708.126C1142.9 708.126 1107.33 722.862 1081.09 749.094C1054.86 775.326 1040.13 810.903 1040.13 848L932 848Z"/>
</mask>
<path d="M932 848C932 782.226 958.128 719.147 1004.64 672.638C1051.15 626.129 1114.23 600 1180 600C1245.77 600 1308.85 626.128 1355.36 672.637C1401.87 719.147 1428 782.226 1428 848L1319.87 848C1319.87 810.903 1305.14 775.325 1278.91 749.094C1252.67 722.862 1217.1 708.126 1180 708.126C1142.9 708.126 1107.33 722.862 1081.09 749.094C1054.86 775.326 1040.13 810.903 1040.13 848L932 848Z" stroke="#543ABB" stroke-width="200" mask="url(#path-4-inside-4_7150_3421)"/>
</svg>
