<svg width="37" height="34" viewBox="0 0 37 34" fill="none" xmlns="http://www.w3.org/2000/svg">
<path d="M21.3203 0H29.1279C31.1986 0 33.1845 0.82258 34.6487 2.28679C36.113 3.751 36.9355 5.73691 36.9355 7.80762V18.3848C36.9355 20.4555 36.113 22.4414 34.6487 23.9056C33.1845 25.3698 31.1986 26.1924 29.1279 26.1924V8.31077C29.1279 8.31077 30.2969 0.670154 21.3203 0Z" fill="#5840BA"/>
<path d="M15.6172 34L29.133 26.1924H15.6172V34Z" fill="#5840BA"/>
<path d="M15.6152 26.1924H7.80762C5.73691 26.1924 3.75099 25.3698 2.28678 23.9056C0.822567 22.4414 0 20.4555 0 18.3848V7.80762C0 5.73691 0.822567 3.751 2.28678 2.28679C3.75099 0.82258 5.73691 0 7.80762 0V17.8816C7.80762 17.8816 6.63214 25.5201 15.6152 26.1924Z" fill="#5840BA"/>
<path d="M12.8435 14.9018C13.84 14.9018 14.6479 14.094 14.6479 13.0974C14.6479 12.1008 13.84 11.293 12.8435 11.293C11.8469 11.293 11.0391 12.1008 11.0391 13.0974C11.0391 14.094 11.8469 14.9018 12.8435 14.9018Z" fill="#A4DB74"/>
<path d="M18.4685 14.9018C19.465 14.9018 20.2729 14.094 20.2729 13.0974C20.2729 12.1008 19.465 11.293 18.4685 11.293C17.4719 11.293 16.6641 12.1008 16.6641 13.0974C16.6641 14.094 17.4719 14.9018 18.4685 14.9018Z" fill="#A4DB74"/>
<path d="M24.0935 14.9018C25.09 14.9018 25.8979 14.094 25.8979 13.0974C25.8979 12.1008 25.09 11.293 24.0935 11.293C23.0969 11.293 22.2891 12.1008 22.2891 13.0974C22.2891 14.094 23.0969 14.9018 24.0935 14.9018Z" fill="#A4DB74"/>
</svg>
